<svg preserveAspectRatio="xMaxYMid" width="200" viewBox="0 0 138 341" fill="none" xmlns="http://www.w3.org/2000/svg">
<path d="M7.5 14C10.5 15 16.5 17.8 16.5 21C16.5 24.2 20.5 17.6667 22.5 14C24.0694 13.2153 24.3716 15.3647 25.4233 16.9233L26.5 18C29 19.5 27 11 29 13C31 15 33 20 35 19.5C37 19 35.5 9.49998 38.5 13C40.9 15.8 46.5 13.5 49 12C49.5 9 52.1 2.6 58.5 1C66.5 -0.999999 62.7019 5.94368 67.5 8L74.5 9.5C76.1009 9.5 75.9959 9.64096 76.0729 9.91392L84 12C91.5 13 84.5 19.5 83 19.5C81.5 19.5 84 34 91.5 33.5C94 33.3333 91 44 106 40C107.833 41.3333 111.2 44.4 110 46C108.5 48 103.112 48.8316 101 52C100 53.5 94.3333 56.8333 89.5 58C86 60.6667 84 66.9074 84 73C84 76.5 79.5 72 80 75C78.8333 76.8333 75.8 80.4 73 80C70.2 79.6 68.1667 96.5 67.5 105C68.5 109.667 73.9609 117.758 82 123.5C85.5 126 72 130.5 111.5 163.5C132 189 133.7 216.7 136.5 239.5C135.333 241.833 132.9 249.5 132.5 261.5C131.933 278.5 107.333 291.833 95 299.5C93.1667 296.667 89 293.8 87 305C85 316.2 82.5 317.5 66 326C57.5 337 58.3 337.5 49.5 339.5L50.5 311C54.8333 309 58.3098 310.412 47 303.5C38 298 46.5 291.5 51.5 294.5C53.9 291.7 54.5 287.667 54.5 286C56.1667 286.167 61.3 286 68.5 284C70 285.667 73.4 288.8 75 288C76.6 287.2 75.6667 284 75 282.5L70.5 279C69.5 276.667 67.9 271.6 69.5 270C70.3333 268.5 72.3 265.7 73.5 266.5C74.7 267.3 77.6667 268.167 79 268.5V261.5H86C88.8333 260.667 94.9 258 96.5 254C98.3333 254.833 101.9 254.8 101.5 248C101 239.5 98.5 242 100 237C101.5 234.667 103.2 227.4 98 217L96.5 207C98.3333 206.667 101.6 203.6 100 194C102 190.667 104.6 184.1 99 184.5C96.6667 182.167 92.2 177 93 175C96.3333 173.667 101.2 170.1 94 166.5C88.6508 164.167 78.7619 157.3 82 148.5C80.8333 148 78.5 146.3 78.5 143.5C74.1667 139.667 65.4 130.5 65 124.5C61.5 123 55 118.2 57 111C52.1667 109 40.5 102.9 32.5 94.5C33.3333 94 35.2 92.6 36 91C37 89 34.5 87.5 36 86.5C37.5 85.5 37 82 47 87.5C51.3333 81.6667 57.9 71 49.5 75C48.1667 75.1667 45.8 74.4 47 70L42.5 69C43 67.3333 44.3 64.4 45.5 66C45.8333 64.5 44.8 60.8 38 58C31.2 55.2 30.1667 60.5 30.5 63.5C30 62.3333 27.2 60 20 60C17.5 57.6667 12.9 51.6 14.5 46C16.1 40.4 16.5 40.3333 16.5 41C17.1667 40 16.8 38.4 10 40C10.5 38.5 9.4 33.2 1 24C1.16667 22.3333 3.1 18 7.5 14Z" fill="#8c8c8c"/>
<path d="M33 298.5C33 298.1 34.6667 297.333 35.5 297H37C37 299.466 36.9242 304.156 36.6407 305.593C36.6593 305.799 36.6179 305.941 36.5 306C36.5518 305.948 36.5986 305.806 36.6407 305.593C36.5015 304.051 33 298.941 33 298.5Z" fill="#8c8c8c"/>
<path d="M84 334.5C82.6667 335.5 80.6 337.7 83 338.5C85.4 339.3 84.6667 336.167 84 334.5Z" fill="#8c8c8c"/>
<path d="M127 294C126 294.667 124.6 296.2 127 297C129.4 297.8 128 295.333 127 294Z" fill="#8c8c8c"/>
<path d="M102 53.5C100.5 54.6667 97.6 57.7 98 60.5C98.5 64 105 51.5 102 53.5Z" fill="#8c8c8c"/>
<path d="M106.5 55C105.5 55.5 103.8 56.7 105 57.5C106.2 58.3 106.5 56.1667 106.5 55Z" fill="#8c8c8c"/>
<path d="M90.5 59.5C91 58.6667 92.2 58 93 62C91.8333 62.1667 89.7 61.9 90.5 59.5Z" fill="#8c8c8c"/>
<path d="M22.5 14C20.5 17.6667 16.5 24.2 16.5 21C16.5 17.8 10.5 15 7.5 14C3.1 18 1.16667 22.3333 1 24C9.4 33.2 10.5 38.5 10 40C16.8 38.4 17.1667 40 16.5 41C16.5 40.3333 16.1 40.4 14.5 46C12.9 51.6 17.5 57.6667 20 60C27.2 60 30 62.3333 30.5 63.5C30.1667 60.5 31.2 55.2 38 58C44.8 60.8 45.8333 64.5 45.5 66C44.3 64.4 43 67.3333 42.5 69L47 70C45.8 74.4 48.1667 75.1667 49.5 75C57.9 71 51.3333 81.6667 47 87.5C37 82 37.5 85.5 36 86.5C34.5 87.5 37 89 36 91C35.2 92.6 33.3333 94 32.5 94.5C40.5 102.9 52.1667 109 57 111C55 118.2 61.5 123 65 124.5C65.4 130.5 74.1667 139.667 78.5 143.5C78.5 146.3 80.8333 148 82 148.5C78.7619 157.3 88.6508 164.167 94 166.5C101.2 170.1 96.3333 173.667 93 175C92.2 177 96.6667 182.167 99 184.5C104.6 184.1 102 190.667 100 194C101.6 203.6 98.3333 206.667 96.5 207L98 217C103.2 227.4 101.5 234.667 100 237C98.5 242 101 239.5 101.5 248C101.9 254.8 98.3333 254.833 96.5 254C94.9 258 88.8333 260.667 86 261.5H79V268.5C77.6667 268.167 74.7 267.3 73.5 266.5C72.3 265.7 70.3333 268.5 69.5 270C67.9 271.6 69.5 276.667 70.5 279L75 282.5C75.6667 284 76.6 287.2 75 288C73.4 288.8 70 285.667 68.5 284C61.3 286 56.1667 286.167 54.5 286C54.5 287.667 53.9 291.7 51.5 294.5C46.5 291.5 38 298 47 303.5C58.3098 310.412 54.8333 309 50.5 311L49.5 339.5C58.3 337.5 57.5 337 66 326C82.5 317.5 85 316.2 87 305C89 293.8 93.1667 296.667 95 299.5C107.333 291.833 131.933 278.5 132.5 261.5C132.9 249.5 135.333 241.833 136.5 239.5C133.7 216.7 132 189 111.5 163.5C72 130.5 85.5 126 82 123.5C73.9609 117.758 68.5 109.667 67.5 105C68.1667 96.5 70.2 79.6 73 80C75.8 80.4 78.8333 76.8333 80 75C79.5 72 84 76.5 84 73C84 66.9074 86 60.6667 89.5 58C94.3333 56.8333 100 53.5 101 52C103.112 48.8316 108.5 48 110 46C111.2 44.4 107.833 41.3333 106 40C91 44 94 33.3333 91.5 33.5C84 34 81.5 19.5 83 19.5C84.5 19.5 91.5 13 84 12M22.5 14C24.5 13 24.442 16.7652 26.5 18M22.5 14L26.5 18M26.5 18C29 19.5 27 11 29 13C31 15 33 20 35 19.5C37 19 35.5 9.49999 38.5 13C40.9 15.8 46.5 13.5 49 12C49.5 9 52.1 2.6 58.5 1C66.5 -0.999999 62.7019 5.94368 67.5 8M67.5 8C71 9.5 66.6738 9.5 74.5 9.5M67.5 8L74.5 9.5M74.5 9.5C78.5 9.5 71.8499 10.38 84 12M74.5 9.5L84 12M35.5 297C34.6667 297.333 33 298.1 33 298.5C33 299 37.5 305.5 36.5 306C36.9 305.6 37 299.833 37 297H35.5ZM84 334.5C82.6667 335.5 80.6 337.7 83 338.5C85.4 339.3 84.6667 336.167 84 334.5ZM127 294C126 294.667 124.6 296.2 127 297C129.4 297.8 128 295.333 127 294ZM102 53.5C100.5 54.6667 97.6 57.7 98 60.5C98.5 64 105 51.5 102 53.5ZM106.5 55C105.5 55.5 103.8 56.7 105 57.5C106.2 58.3 106.5 56.1667 106.5 55ZM90.5 59.5C91 58.6667 92.2 58 93 62C91.8333 62.1667 89.7 61.9 90.5 59.5Z" stroke="#8c8c8c"/>
</svg>
